<mxfile host="app.diagrams.net" modified="2024-03-30T05:01:54.552Z" agent="Mozilla/5.0 (Macintosh; Intel Mac OS X 10_15_7) AppleWebKit/537.36 (KHTML, like Gecko) Chrome/123.0.0.0 Safari/537.36" etag="tzHAUzohcd-0XhIfydJz" version="24.0.5" type="device">
  <diagram name="Page-1" id="WW0kqRDkj42gnavP0p4u">
    <mxGraphModel dx="635" dy="910" grid="1" gridSize="10" guides="1" tooltips="1" connect="1" arrows="1" fold="1" page="1" pageScale="1" pageWidth="850" pageHeight="1100" math="0" shadow="0">
      <root>
        <mxCell id="0" />
        <mxCell id="1" parent="0" />
        <mxCell id="PMjxyI1tYamjX6HfjtyL-9" value="" style="group" vertex="1" connectable="0" parent="1">
          <mxGeometry x="200" y="290" width="480" height="320" as="geometry" />
        </mxCell>
        <mxCell id="PMjxyI1tYamjX6HfjtyL-2" value="Normal Operation of Device" style="ellipse;whiteSpace=wrap;html=1;" vertex="1" parent="PMjxyI1tYamjX6HfjtyL-9">
          <mxGeometry y="240" width="120" height="80" as="geometry" />
        </mxCell>
        <mxCell id="PMjxyI1tYamjX6HfjtyL-3" value="Check Previous Sessions" style="ellipse;whiteSpace=wrap;html=1;" vertex="1" parent="PMjxyI1tYamjX6HfjtyL-9">
          <mxGeometry y="120" width="120" height="80" as="geometry" />
        </mxCell>
        <mxCell id="PMjxyI1tYamjX6HfjtyL-4" value="Clear Previous Sessions" style="ellipse;whiteSpace=wrap;html=1;" vertex="1" parent="PMjxyI1tYamjX6HfjtyL-9">
          <mxGeometry x="80" width="120" height="80" as="geometry" />
        </mxCell>
        <mxCell id="PMjxyI1tYamjX6HfjtyL-5" value="Change Breath Pacer" style="ellipse;whiteSpace=wrap;html=1;" vertex="1" parent="PMjxyI1tYamjX6HfjtyL-9">
          <mxGeometry x="280" width="120" height="80" as="geometry" />
        </mxCell>
        <mxCell id="PMjxyI1tYamjX6HfjtyL-6" value="User" style="shape=umlActor;verticalLabelPosition=bottom;verticalAlign=top;html=1;outlineConnect=0;" vertex="1" parent="PMjxyI1tYamjX6HfjtyL-9">
          <mxGeometry x="190" y="90" width="100" height="220" as="geometry" />
        </mxCell>
        <mxCell id="PMjxyI1tYamjX6HfjtyL-7" value="Change Challenge Level" style="ellipse;whiteSpace=wrap;html=1;" vertex="1" parent="PMjxyI1tYamjX6HfjtyL-9">
          <mxGeometry x="360" y="120" width="120" height="80" as="geometry" />
        </mxCell>
        <mxCell id="PMjxyI1tYamjX6HfjtyL-8" value="Battery Runs Out" style="ellipse;whiteSpace=wrap;html=1;" vertex="1" parent="PMjxyI1tYamjX6HfjtyL-9">
          <mxGeometry x="360" y="240" width="120" height="80" as="geometry" />
        </mxCell>
        <mxCell id="PMjxyI1tYamjX6HfjtyL-10" value="" style="endArrow=none;html=1;rounded=0;exitX=1;exitY=0.5;exitDx=0;exitDy=0;" edge="1" parent="PMjxyI1tYamjX6HfjtyL-9" source="PMjxyI1tYamjX6HfjtyL-2" target="PMjxyI1tYamjX6HfjtyL-6">
          <mxGeometry width="50" height="50" relative="1" as="geometry">
            <mxPoint x="150" y="260" as="sourcePoint" />
            <mxPoint x="200" y="210" as="targetPoint" />
          </mxGeometry>
        </mxCell>
        <mxCell id="PMjxyI1tYamjX6HfjtyL-11" value="" style="endArrow=none;html=1;rounded=0;exitX=1;exitY=0.5;exitDx=0;exitDy=0;" edge="1" parent="PMjxyI1tYamjX6HfjtyL-9" source="PMjxyI1tYamjX6HfjtyL-3" target="PMjxyI1tYamjX6HfjtyL-6">
          <mxGeometry width="50" height="50" relative="1" as="geometry">
            <mxPoint x="130" y="220" as="sourcePoint" />
            <mxPoint x="180" y="170" as="targetPoint" />
          </mxGeometry>
        </mxCell>
        <mxCell id="PMjxyI1tYamjX6HfjtyL-12" value="" style="endArrow=none;html=1;rounded=0;exitX=1;exitY=1;exitDx=0;exitDy=0;" edge="1" parent="PMjxyI1tYamjX6HfjtyL-9" source="PMjxyI1tYamjX6HfjtyL-4" target="PMjxyI1tYamjX6HfjtyL-6">
          <mxGeometry width="50" height="50" relative="1" as="geometry">
            <mxPoint x="10" y="40" as="sourcePoint" />
            <mxPoint x="60" y="-10" as="targetPoint" />
          </mxGeometry>
        </mxCell>
        <mxCell id="PMjxyI1tYamjX6HfjtyL-13" value="" style="endArrow=none;html=1;rounded=0;entryX=0;entryY=1;entryDx=0;entryDy=0;" edge="1" parent="PMjxyI1tYamjX6HfjtyL-9" source="PMjxyI1tYamjX6HfjtyL-6" target="PMjxyI1tYamjX6HfjtyL-5">
          <mxGeometry width="50" height="50" relative="1" as="geometry">
            <mxPoint x="300" y="170" as="sourcePoint" />
            <mxPoint x="350" y="120" as="targetPoint" />
          </mxGeometry>
        </mxCell>
        <mxCell id="PMjxyI1tYamjX6HfjtyL-14" value="" style="endArrow=none;html=1;rounded=0;entryX=0;entryY=0.5;entryDx=0;entryDy=0;" edge="1" parent="PMjxyI1tYamjX6HfjtyL-9" source="PMjxyI1tYamjX6HfjtyL-6" target="PMjxyI1tYamjX6HfjtyL-7">
          <mxGeometry width="50" height="50" relative="1" as="geometry">
            <mxPoint x="300" y="200" as="sourcePoint" />
            <mxPoint x="350" y="150" as="targetPoint" />
          </mxGeometry>
        </mxCell>
        <mxCell id="PMjxyI1tYamjX6HfjtyL-15" value="" style="endArrow=none;html=1;rounded=0;entryX=0;entryY=0.5;entryDx=0;entryDy=0;" edge="1" parent="PMjxyI1tYamjX6HfjtyL-9" source="PMjxyI1tYamjX6HfjtyL-6" target="PMjxyI1tYamjX6HfjtyL-8">
          <mxGeometry width="50" height="50" relative="1" as="geometry">
            <mxPoint x="300" y="290" as="sourcePoint" />
            <mxPoint x="350" y="240" as="targetPoint" />
          </mxGeometry>
        </mxCell>
      </root>
    </mxGraphModel>
  </diagram>
</mxfile>
